<svg width="37" height="41" viewBox="0 0 37 41" fill="none" xmlns="http://www.w3.org/2000/svg">
<path d="M1 18.5824C1 23.2456 2.85243 27.7177 6.14977 31.0151C9.44711 34.3124 13.9193 36.1648 18.5824 36.1648C23.2456 36.1648 27.7177 34.3124 31.0151 31.0151C34.3124 27.7177 36.1648 23.2456 36.1648 18.5824C36.1648 13.9193 34.3124 9.44711 31.0151 6.14977C27.7177 2.85243 23.2456 1 18.5824 1C13.9193 1 9.44711 2.85243 6.14977 6.14977C2.85243 9.44711 1 13.9193 1 18.5824Z" fill="#FFE500"/>
<path d="M18.5824 1C15.105 1 11.7056 2.03119 8.81416 3.96317C5.92274 5.89515 3.66916 8.64115 2.33839 11.8539C1.00762 15.0667 0.659428 18.6019 1.33785 22.0126C2.01627 25.4232 3.69083 28.5561 6.14978 31.0151C8.60872 33.474 11.7416 35.1486 15.1523 35.827C18.5629 36.5054 22.0982 36.1572 25.3109 34.8265C28.5237 33.4957 31.2697 31.2421 33.2017 28.3507C35.1336 25.4593 36.1648 22.0599 36.1648 18.5824C36.1648 13.9193 34.3124 9.44711 31.0151 6.14977C27.7177 2.85243 23.2456 1 18.5824 1ZM18.5824 33.5275C15.4092 33.5275 12.3073 32.5865 9.66888 30.8236C7.03047 29.0606 4.97407 26.5549 3.75974 23.6233C2.54541 20.6916 2.22769 17.4657 2.84675 14.3535C3.46581 11.2413 4.99385 8.38251 7.23764 6.13873C9.48142 3.89494 12.3402 2.3669 15.4524 1.74784C18.5646 1.12878 21.7905 1.4465 24.7222 2.66083C27.6538 3.87516 30.1596 5.93156 31.9225 8.56997C33.6854 11.2084 34.6264 14.3103 34.6264 17.4835C34.6264 21.7386 32.936 25.8195 29.9272 28.8283C26.9184 31.8371 22.8375 33.5275 18.5824 33.5275Z" fill="#EBCB00"/>
<path d="M13.3076 4.51647C13.3076 4.8662 13.8633 5.20161 14.8525 5.44891C15.8418 5.69622 17.1834 5.83515 18.5823 5.83515C19.9813 5.83515 21.3229 5.69622 22.3121 5.44891C23.3013 5.20161 23.8571 4.8662 23.8571 4.51647C23.8571 4.16673 23.3013 3.83132 22.3121 3.58402C21.3229 3.33672 19.9813 3.19778 18.5823 3.19778C17.1834 3.19778 15.8418 3.33672 14.8525 3.58402C13.8633 3.83132 13.3076 4.16673 13.3076 4.51647Z" fill="#FFF48C"/>
<path opacity="0.15" d="M4.5166 39.6813C4.5166 40.0311 5.99854 40.3665 8.63642 40.6138C11.2743 40.8611 14.852 41 18.5825 41C22.3131 41 25.8908 40.8611 28.5287 40.6138C31.1665 40.3665 32.6485 40.0311 32.6485 39.6813C32.6485 39.3316 31.1665 38.9962 28.5287 38.7489C25.8908 38.5016 22.3131 38.3626 18.5825 38.3626C14.852 38.3626 11.2743 38.5016 8.63642 38.7489C5.99854 38.9962 4.5166 39.3316 4.5166 39.6813Z" fill="#45413C"/>
<path d="M1 18.5824C1 23.2456 2.85243 27.7177 6.14977 31.0151C9.44711 34.3124 13.9193 36.1648 18.5824 36.1648C23.2456 36.1648 27.7177 34.3124 31.0151 31.0151C34.3124 27.7177 36.1648 23.2456 36.1648 18.5824C36.1648 13.9193 34.3124 9.44711 31.0151 6.14977C27.7177 2.85243 23.2456 1 18.5824 1C13.9193 1 9.44711 2.85243 6.14977 6.14977C2.85243 9.44711 1 13.9193 1 18.5824V18.5824Z" stroke="#45413C" stroke-width="0.5" stroke-linecap="round" stroke-linejoin="round"/>
<path d="M31.3297 22.978C31.3297 23.7077 30.3451 24.2967 29.1319 24.2967C27.9187 24.2967 26.9341 23.7077 26.9341 22.978C26.9341 22.2483 27.9187 21.6593 29.1319 21.6593C30.3451 21.6593 31.3297 22.2483 31.3297 22.978Z" fill="#FFAA54"/>
<path d="M5.83521 22.978C5.83521 23.7077 6.81982 24.2967 8.03301 24.2967C9.24619 24.2967 10.2308 23.7077 10.2308 22.978C10.2308 22.2483 9.24619 21.6593 8.03301 21.6593C6.81982 21.6593 5.83521 22.2483 5.83521 22.978Z" fill="#FFAA54"/>
<path d="M13.2549 25.6154C13.1361 25.616 13.0188 25.6423 12.9111 25.6924C12.8034 25.7424 12.7078 25.8151 12.6307 25.9055C12.5547 25.9979 12.4983 26.1047 12.4651 26.2196C12.4318 26.3345 12.4224 26.455 12.4373 26.5736C12.6726 28.0363 13.4212 29.3674 14.5489 30.3281C15.6766 31.2889 17.1096 31.8166 18.5911 31.8166C20.0726 31.8166 21.5057 31.2889 22.6334 30.3281C23.7611 29.3674 24.5097 28.0363 24.745 26.5736C24.7599 26.455 24.7504 26.3345 24.7172 26.2196C24.6839 26.1047 24.6275 25.9979 24.5516 25.9055C24.4745 25.8151 24.3788 25.7424 24.2711 25.6924C24.1634 25.6423 24.0462 25.616 23.9274 25.6154H13.2549Z" fill="#FFB0CA" stroke="#45413C" stroke-width="0.5" stroke-linecap="round" stroke-linejoin="round"/>
<path d="M23.479 29.4308C21.9716 28.6357 20.286 28.2393 18.5822 28.2791C16.8785 28.2393 15.1929 28.6357 13.6855 29.4308C14.2756 30.1613 15.0216 30.7505 15.8688 31.1553C16.7161 31.5601 17.6432 31.7701 18.5822 31.7701C19.5213 31.7701 20.4484 31.5601 21.2957 31.1553C22.1429 30.7505 22.8889 30.1613 23.479 29.4308Z" fill="#FF87AF" stroke="#45413C" stroke-width="0.5" stroke-linecap="round" stroke-linejoin="round"/>
<path d="M6.27466 19.6813C6.27466 19.2733 6.43675 18.882 6.72526 18.5935C7.01378 18.3049 7.40509 18.1429 7.81312 18.1429C8.22115 18.1429 8.61246 18.3049 8.90098 18.5935C9.18949 18.882 9.35158 19.2733 9.35158 19.6813" stroke="#45413C" stroke-width="0.5" stroke-linecap="round" stroke-linejoin="round"/>
<path d="M27.8132 19.6813C27.8132 19.2733 27.9753 18.882 28.2638 18.5935C28.5524 18.3049 28.9437 18.1429 29.3517 18.1429C29.7597 18.1429 30.151 18.3049 30.4396 18.5935C30.7281 18.882 30.8902 19.2733 30.8902 19.6813" stroke="#45413C" stroke-width="0.5" stroke-linecap="round" stroke-linejoin="round"/>
</svg>
